STARTFONT 2.1
COMMENT Recovered from ar1.1:ARR10 1 (Xerox Alto CONVERT font source (AL) recovered from MIT CADR AR1 ARC!!!)
FONT MIT-CADR-ARR10-AL-AR1
SIZE 30 72 72
FONTBOUNDINGBOX 30 30 0 0
STARTPROPERTIES 2
FONT_ASCENT 30
FONT_DESCENT 0
ENDPROPERTIES
CHARS 128
STARTCHAR C0000
ENCODING -1 0
SWIDTH 0 0
DWIDTH 0 0
BBX 0 30 0 0
BITMAP
00
00
00
00
00
00
00
00
00
00
00
00
00
00
00
00
00
00
00
00
00
00
00
00
00
00
00
00
00
00
ENDCHAR
STARTCHAR C0001
ENCODING -1 1
SWIDTH 0 0
DWIDTH 0 0
BBX 0 30 0 0
BITMAP
00
00
00
00
00
00
00
00
00
00
00
00
00
00
00
00
00
00
00
00
00
00
00
00
00
00
00
00
00
00
ENDCHAR
STARTCHAR C0002
ENCODING -1 2
SWIDTH 0 0
DWIDTH 0 0
BBX 0 30 0 0
BITMAP
00
00
00
00
00
00
00
00
00
00
00
00
00
00
00
00
00
00
00
00
00
00
00
00
00
00
00
00
00
00
ENDCHAR
STARTCHAR C0003
ENCODING -1 3
SWIDTH 0 0
DWIDTH 0 0
BBX 0 30 0 0
BITMAP
00
00
00
00
00
00
00
00
00
00
00
00
00
00
00
00
00
00
00
00
00
00
00
00
00
00
00
00
00
00
ENDCHAR
STARTCHAR C0004
ENCODING -1 4
SWIDTH 0 0
DWIDTH 0 0
BBX 0 30 0 0
BITMAP
00
00
00
00
00
00
00
00
00
00
00
00
00
00
00
00
00
00
00
00
00
00
00
00
00
00
00
00
00
00
ENDCHAR
STARTCHAR C0005
ENCODING -1 5
SWIDTH 600 0
DWIDTH 18 0
BBX 18 30 0 0
BITMAP
000000
000000
000000
000000
000000
000000
000000
000000
000000
000000
000000
000000
000000
000000
000000
000000
000000
000000
000000
000000
000000
000000
000000
000000
000000
000000
000000
000000
000000
000000
ENDCHAR
STARTCHAR C0006
ENCODING -1 6
SWIDTH 0 0
DWIDTH 0 0
BBX 0 30 0 0
BITMAP
00
00
00
00
00
00
00
00
00
00
00
00
00
00
00
00
00
00
00
00
00
00
00
00
00
00
00
00
00
00
ENDCHAR
STARTCHAR C0007
ENCODING -1 7
SWIDTH 0 0
DWIDTH 0 0
BBX 0 30 0 0
BITMAP
00
00
00
00
00
00
00
00
00
00
00
00
00
00
00
00
00
00
00
00
00
00
00
00
00
00
00
00
00
00
ENDCHAR
STARTCHAR C0008
ENCODING -1 8
SWIDTH 0 0
DWIDTH 0 0
BBX 0 30 0 0
BITMAP
00
00
00
00
00
00
00
00
00
00
00
00
00
00
00
00
00
00
00
00
00
00
00
00
00
00
00
00
00
00
ENDCHAR
STARTCHAR C0009
ENCODING -1 9
SWIDTH 0 0
DWIDTH 0 0
BBX 0 30 0 0
BITMAP
00
00
00
00
00
00
00
00
00
00
00
00
00
00
00
00
00
00
00
00
00
00
00
00
00
00
00
00
00
00
ENDCHAR
STARTCHAR C000A
ENCODING -1 10
SWIDTH 0 0
DWIDTH 0 0
BBX 0 30 0 0
BITMAP
00
00
00
00
00
00
00
00
00
00
00
00
00
00
00
00
00
00
00
00
00
00
00
00
00
00
00
00
00
00
ENDCHAR
STARTCHAR C000B
ENCODING -1 11
SWIDTH 0 0
DWIDTH 0 0
BBX 0 30 0 0
BITMAP
00
00
00
00
00
00
00
00
00
00
00
00
00
00
00
00
00
00
00
00
00
00
00
00
00
00
00
00
00
00
ENDCHAR
STARTCHAR C000C
ENCODING -1 12
SWIDTH 0 0
DWIDTH 0 0
BBX 0 30 0 0
BITMAP
00
00
00
00
00
00
00
00
00
00
00
00
00
00
00
00
00
00
00
00
00
00
00
00
00
00
00
00
00
00
ENDCHAR
STARTCHAR C000D
ENCODING -1 13
SWIDTH 0 0
DWIDTH 0 0
BBX 0 30 0 0
BITMAP
00
00
00
00
00
00
00
00
00
00
00
00
00
00
00
00
00
00
00
00
00
00
00
00
00
00
00
00
00
00
ENDCHAR
STARTCHAR C000E
ENCODING -1 14
SWIDTH 0 0
DWIDTH 0 0
BBX 0 30 0 0
BITMAP
00
00
00
00
00
00
00
00
00
00
00
00
00
00
00
00
00
00
00
00
00
00
00
00
00
00
00
00
00
00
ENDCHAR
STARTCHAR C000F
ENCODING -1 15
SWIDTH 0 0
DWIDTH 0 0
BBX 0 30 0 0
BITMAP
00
00
00
00
00
00
00
00
00
00
00
00
00
00
00
00
00
00
00
00
00
00
00
00
00
00
00
00
00
00
ENDCHAR
STARTCHAR C0010
ENCODING -1 16
SWIDTH 0 0
DWIDTH 0 0
BBX 0 30 0 0
BITMAP
00
00
00
00
00
00
00
00
00
00
00
00
00
00
00
00
00
00
00
00
00
00
00
00
00
00
00
00
00
00
ENDCHAR
STARTCHAR C0011
ENCODING -1 17
SWIDTH 0 0
DWIDTH 0 0
BBX 0 30 0 0
BITMAP
00
00
00
00
00
00
00
00
00
00
00
00
00
00
00
00
00
00
00
00
00
00
00
00
00
00
00
00
00
00
ENDCHAR
STARTCHAR C0012
ENCODING -1 18
SWIDTH 0 0
DWIDTH 0 0
BBX 0 30 0 0
BITMAP
00
00
00
00
00
00
00
00
00
00
00
00
00
00
00
00
00
00
00
00
00
00
00
00
00
00
00
00
00
00
ENDCHAR
STARTCHAR C0013
ENCODING -1 19
SWIDTH 0 0
DWIDTH 0 0
BBX 0 30 0 0
BITMAP
00
00
00
00
00
00
00
00
00
00
00
00
00
00
00
00
00
00
00
00
00
00
00
00
00
00
00
00
00
00
ENDCHAR
STARTCHAR C0014
ENCODING -1 20
SWIDTH 0 0
DWIDTH 0 0
BBX 0 30 0 0
BITMAP
00
00
00
00
00
00
00
00
00
00
00
00
00
00
00
00
00
00
00
00
00
00
00
00
00
00
00
00
00
00
ENDCHAR
STARTCHAR C0015
ENCODING -1 21
SWIDTH 0 0
DWIDTH 0 0
BBX 0 30 0 0
BITMAP
00
00
00
00
00
00
00
00
00
00
00
00
00
00
00
00
00
00
00
00
00
00
00
00
00
00
00
00
00
00
ENDCHAR
STARTCHAR C0016
ENCODING -1 22
SWIDTH 0 0
DWIDTH 0 0
BBX 0 30 0 0
BITMAP
00
00
00
00
00
00
00
00
00
00
00
00
00
00
00
00
00
00
00
00
00
00
00
00
00
00
00
00
00
00
ENDCHAR
STARTCHAR C0017
ENCODING -1 23
SWIDTH 0 0
DWIDTH 0 0
BBX 0 30 0 0
BITMAP
00
00
00
00
00
00
00
00
00
00
00
00
00
00
00
00
00
00
00
00
00
00
00
00
00
00
00
00
00
00
ENDCHAR
STARTCHAR C0018
ENCODING -1 24
SWIDTH 0 0
DWIDTH 0 0
BBX 0 30 0 0
BITMAP
00
00
00
00
00
00
00
00
00
00
00
00
00
00
00
00
00
00
00
00
00
00
00
00
00
00
00
00
00
00
ENDCHAR
STARTCHAR C0019
ENCODING -1 25
SWIDTH 0 0
DWIDTH 0 0
BBX 0 30 0 0
BITMAP
00
00
00
00
00
00
00
00
00
00
00
00
00
00
00
00
00
00
00
00
00
00
00
00
00
00
00
00
00
00
ENDCHAR
STARTCHAR C001A
ENCODING -1 26
SWIDTH 0 0
DWIDTH 0 0
BBX 0 30 0 0
BITMAP
00
00
00
00
00
00
00
00
00
00
00
00
00
00
00
00
00
00
00
00
00
00
00
00
00
00
00
00
00
00
ENDCHAR
STARTCHAR C001B
ENCODING -1 27
SWIDTH 0 0
DWIDTH 0 0
BBX 0 30 0 0
BITMAP
00
00
00
00
00
00
00
00
00
00
00
00
00
00
00
00
00
00
00
00
00
00
00
00
00
00
00
00
00
00
ENDCHAR
STARTCHAR C001C
ENCODING -1 28
SWIDTH 0 0
DWIDTH 0 0
BBX 0 30 0 0
BITMAP
00
00
00
00
00
00
00
00
00
00
00
00
00
00
00
00
00
00
00
00
00
00
00
00
00
00
00
00
00
00
ENDCHAR
STARTCHAR C001D
ENCODING -1 29
SWIDTH 0 0
DWIDTH 0 0
BBX 0 30 0 0
BITMAP
00
00
00
00
00
00
00
00
00
00
00
00
00
00
00
00
00
00
00
00
00
00
00
00
00
00
00
00
00
00
ENDCHAR
STARTCHAR C001E
ENCODING -1 30
SWIDTH 0 0
DWIDTH 0 0
BBX 0 30 0 0
BITMAP
00
00
00
00
00
00
00
00
00
00
00
00
00
00
00
00
00
00
00
00
00
00
00
00
00
00
00
00
00
00
ENDCHAR
STARTCHAR C001F
ENCODING -1 31
SWIDTH 0 0
DWIDTH 0 0
BBX 0 30 0 0
BITMAP
00
00
00
00
00
00
00
00
00
00
00
00
00
00
00
00
00
00
00
00
00
00
00
00
00
00
00
00
00
00
ENDCHAR
STARTCHAR C0020
ENCODING -1 32
SWIDTH 0 0
DWIDTH 0 0
BBX 0 30 0 0
BITMAP
00
00
00
00
00
00
00
00
00
00
00
00
00
00
00
00
00
00
00
00
00
00
00
00
00
00
00
00
00
00
ENDCHAR
STARTCHAR C0021
ENCODING -1 33
SWIDTH 1000 0
DWIDTH 30 0
BBX 30 30 0 0
BITMAP
E0000000
FC000000
FF800000
7FF00000
7FFE0000
7FFFC000
3FFFF800
3FFFFF00
3F1FFFE0
1F03FFFC
1F007FFC
1F800FF8
0F8001F0
0F800020
0FC00000
07C00000
07C00000
07E00000
03E00000
03E00000
03F00000
01F00000
01F00000
01F80000
00F80000
00F80000
00FC0000
00780000
00700000
00600000
ENDCHAR
STARTCHAR C0022
ENCODING -1 34
SWIDTH 0 0
DWIDTH 0 0
BBX 0 30 0 0
BITMAP
00
00
00
00
00
00
00
00
00
00
00
00
00
00
00
00
00
00
00
00
00
00
00
00
00
00
00
00
00
00
ENDCHAR
STARTCHAR C0023
ENCODING -1 35
SWIDTH 1000 0
DWIDTH 30 0
BBX 30 30 0 0
BITMAP
00600000
00700000
00780000
00FC0000
00F80000
00F80000
01F80000
01F00000
01F00000
03F00000
03E00000
03E00000
07E00000
07C00000
07C00000
0FC00000
0F800020
0F8001F0
1F800FF8
1F007FFC
1F03FFFC
3F1FFFE0
3FFFFF00
3FFFF800
7FFFC000
7FFE0000
7FF00000
FF800000
FC000000
E0000000
ENDCHAR
STARTCHAR C0024
ENCODING -1 36
SWIDTH 933 0
DWIDTH 28 0
BBX 28 30 0 0
BITMAP
00000000
00000000
FC0003F0
FC0003F0
7E0007E0
7E0007E0
3F000FC0
3F000FC0
1F801F80
1F801F80
0FC03F00
0FC03F00
07E07E00
07E07E00
03F0FC00
03F0FC00
01F9F800
01F9F800
00FFF000
00FFF000
007FE000
007FE000
003FC000
003FC000
001F8000
001F8000
000F0000
000F0000
00060000
00060000
ENDCHAR
STARTCHAR C0025
ENCODING -1 37
SWIDTH 1000 0
DWIDTH 30 0
BBX 30 30 0 0
BITMAP
00001800
00003800
00007800
0000FC00
00007C00
00007C00
00007E00
00003E00
00003E00
00003F00
00001F00
00001F00
00001F80
00000F80
00000F80
00000FC0
100007C0
3E0007C0
7FC007E0
FFF803E0
FFFF03E0
1FFFE3F0
03FFFFF0
007FFFF0
000FFFF8
0001FFF8
00003FF8
000007FC
000000FC
0000001C
ENDCHAR
STARTCHAR C0026
ENCODING -1 38
SWIDTH 1000 0
DWIDTH 30 0
BBX 30 30 0 0
BITMAP
0000001C
000000FC
000007FC
00003FF8
0001FFF8
000FFFF8
007FFFF0
03FFFFF0
1FFFE3F0
FFFF03E0
FFF803E0
7FC007E0
3E0007C0
100007C0
00000FC0
00000F80
00000F80
00001F80
00001F00
00001F00
00003F00
00003E00
00003E00
00007E00
00007C00
00007C00
0000FC00
00007800
00003800
00001800
ENDCHAR
STARTCHAR C0027
ENCODING -1 39
SWIDTH 0 0
DWIDTH 0 0
BBX 0 30 0 0
BITMAP
00
00
00
00
00
00
00
00
00
00
00
00
00
00
00
00
00
00
00
00
00
00
00
00
00
00
00
00
00
00
ENDCHAR
STARTCHAR C0028
ENCODING -1 40
SWIDTH 0 0
DWIDTH 0 0
BBX 0 30 0 0
BITMAP
00
00
00
00
00
00
00
00
00
00
00
00
00
00
00
00
00
00
00
00
00
00
00
00
00
00
00
00
00
00
ENDCHAR
STARTCHAR C0029
ENCODING -1 41
SWIDTH 0 0
DWIDTH 0 0
BBX 0 30 0 0
BITMAP
00
00
00
00
00
00
00
00
00
00
00
00
00
00
00
00
00
00
00
00
00
00
00
00
00
00
00
00
00
00
ENDCHAR
STARTCHAR C002A
ENCODING -1 42
SWIDTH 933 0
DWIDTH 28 0
BBX 28 30 0 0
BITMAP
00000000
00000000
00060000
00060000
000F0000
000F0000
001F8000
001F8000
003FC000
003FC000
007FE000
007FE000
00FFF000
00FFF000
01F9F800
01F9F800
03F0FC00
03F0FC00
07E07E00
07E07E00
0FC03F00
0FC03F00
1F801F80
1F801F80
3F000FC0
3F000FC0
7E0007E0
7E0007E0
FC0003F0
FC0003F0
ENDCHAR
STARTCHAR C002B
ENCODING -1 43
SWIDTH 0 0
DWIDTH 0 0
BBX 0 30 0 0
BITMAP
00
00
00
00
00
00
00
00
00
00
00
00
00
00
00
00
00
00
00
00
00
00
00
00
00
00
00
00
00
00
ENDCHAR
STARTCHAR C002C
ENCODING -1 44
SWIDTH 200 0
DWIDTH 6 0
BBX 6 30 0 0
BITMAP
00
00
00
00
00
00
00
00
00
00
00
00
00
00
00
00
00
00
00
00
00
00
00
00
30
30
78
78
FC
FC
ENDCHAR
STARTCHAR C002D
ENCODING -1 45
SWIDTH 0 0
DWIDTH 0 0
BBX 0 30 0 0
BITMAP
00
00
00
00
00
00
00
00
00
00
00
00
00
00
00
00
00
00
00
00
00
00
00
00
00
00
00
00
00
00
ENDCHAR
STARTCHAR C002E
ENCODING -1 46
SWIDTH 0 0
DWIDTH 0 0
BBX 0 30 0 0
BITMAP
00
00
00
00
00
00
00
00
00
00
00
00
00
00
00
00
00
00
00
00
00
00
00
00
00
00
00
00
00
00
ENDCHAR
STARTCHAR C002F
ENCODING -1 47
SWIDTH 0 0
DWIDTH 0 0
BBX 0 30 0 0
BITMAP
00
00
00
00
00
00
00
00
00
00
00
00
00
00
00
00
00
00
00
00
00
00
00
00
00
00
00
00
00
00
ENDCHAR
STARTCHAR C0030
ENCODING -1 48
SWIDTH 0 0
DWIDTH 0 0
BBX 0 30 0 0
BITMAP
00
00
00
00
00
00
00
00
00
00
00
00
00
00
00
00
00
00
00
00
00
00
00
00
00
00
00
00
00
00
ENDCHAR
STARTCHAR C0031
ENCODING -1 49
SWIDTH 867 0
DWIDTH 26 0
BBX 26 30 0 0
BITMAP
00000000
00000000
00000000
00000000
E0000000
FC000000
FF800000
7FF00000
7FFE0000
7FFFC000
3FFFF800
3FFFFF00
3FFFFFC0
1FFFFF80
1FFFFF00
1FFFFE00
0FFFFC00
0FFFF800
0FFFF000
07FFE000
07FFC000
07FF8000
03FF0000
03FE0000
03FC0000
01F80000
01F00000
01E00000
00C00000
00800000
ENDCHAR
STARTCHAR C0032
ENCODING -1 50
SWIDTH 800 0
DWIDTH 24 0
BBX 24 30 0 0
BITMAP
000000
000000
000000
000000
000000
000000
000003
00000F
00003F
0000FF
0003FF
000FFF
003FFF
00FFFF
03FFFF
0FFFFF
3FFFFF
FFFFFF
FFFFFF
3FFFFF
0FFFFF
03FFFF
00FFFF
003FFF
000FFF
0003FF
0000FF
00003F
00000F
000003
ENDCHAR
STARTCHAR C0033
ENCODING -1 51
SWIDTH 867 0
DWIDTH 26 0
BBX 26 30 0 0
BITMAP
00000000
00000000
00000000
00000000
00800000
00C00000
01E00000
01F00000
01F80000
03FC0000
03FE0000
03FF0000
07FF8000
07FFC000
07FFE000
0FFFF000
0FFFF800
0FFFFC00
1FFFFE00
1FFFFF00
1FFFFF80
3FFFFFC0
3FFFFF00
3FFFF800
7FFFC000
7FFE0000
7FF00000
FF800000
FC000000
E0000000
ENDCHAR
STARTCHAR C0034
ENCODING -1 52
SWIDTH 800 0
DWIDTH 24 0
BBX 24 30 0 0
BITMAP
000000
000000
000000
000000
000000
000000
FFFFFF
FFFFFF
7FFFFE
7FFFFE
3FFFFC
3FFFFC
1FFFF8
1FFFF8
0FFFF0
0FFFF0
07FFE0
07FFE0
03FFC0
03FFC0
01FF80
01FF80
00FF00
00FF00
007E00
007E00
003C00
003C00
001800
001800
ENDCHAR
STARTCHAR C0035
ENCODING -1 53
SWIDTH 867 0
DWIDTH 26 0
BBX 26 30 0 0
BITMAP
00000000
00000000
00000000
00000000
00004000
0000C000
0001E000
0003E000
0007E000
000FF000
001FF000
003FF000
007FF800
00FFF800
01FFF800
03FFFC00
07FFFC00
0FFFFC00
1FFFFE00
3FFFFE00
7FFFFE00
FFFFFF00
3FFFFF00
07FFFF00
00FFFF80
001FFF80
0003FF80
00007FC0
00000FC0
000001C0
ENDCHAR
STARTCHAR C0036
ENCODING -1 54
SWIDTH 800 0
DWIDTH 24 0
BBX 24 30 0 0
BITMAP
000000
000000
000000
000000
000000
000000
C00000
F00000
FC0000
FF0000
FFC000
FFF000
FFFC00
FFFF00
FFFFC0
FFFFF0
FFFFFC
FFFFFF
FFFFFF
FFFFFC
FFFFF0
FFFFC0
FFFF00
FFFC00
FFF000
FFC000
FF0000
FC0000
F00000
C00000
ENDCHAR
STARTCHAR C0037
ENCODING -1 55
SWIDTH 867 0
DWIDTH 26 0
BBX 26 30 0 0
BITMAP
00000000
00000000
00000000
00000000
000001C0
00000FC0
00007FC0
0003FF80
001FFF80
00FFFF80
07FFFF00
3FFFFF00
FFFFFF00
7FFFFE00
3FFFFE00
1FFFFE00
0FFFFC00
07FFFC00
03FFFC00
01FFF800
00FFF800
007FF800
003FF000
001FF000
000FF000
0007E000
0003E000
0001E000
0000C000
00004000
ENDCHAR
STARTCHAR C0038
ENCODING -1 56
SWIDTH 800 0
DWIDTH 24 0
BBX 24 30 0 0
BITMAP
000000
000000
000000
000000
000000
000000
001800
001800
003C00
003C00
007E00
007E00
00FF00
00FF00
01FF80
01FF80
03FFC0
03FFC0
07FFE0
07FFE0
0FFFF0
0FFFF0
1FFFF8
1FFFF8
3FFFFC
3FFFFC
7FFFFE
7FFFFE
FFFFFF
FFFFFF
ENDCHAR
STARTCHAR C0039
ENCODING -1 57
SWIDTH 0 0
DWIDTH 0 0
BBX 0 30 0 0
BITMAP
00
00
00
00
00
00
00
00
00
00
00
00
00
00
00
00
00
00
00
00
00
00
00
00
00
00
00
00
00
00
ENDCHAR
STARTCHAR C003A
ENCODING -1 58
SWIDTH 0 0
DWIDTH 0 0
BBX 0 30 0 0
BITMAP
00
00
00
00
00
00
00
00
00
00
00
00
00
00
00
00
00
00
00
00
00
00
00
00
00
00
00
00
00
00
ENDCHAR
STARTCHAR C003B
ENCODING -1 59
SWIDTH 0 0
DWIDTH 0 0
BBX 0 30 0 0
BITMAP
00
00
00
00
00
00
00
00
00
00
00
00
00
00
00
00
00
00
00
00
00
00
00
00
00
00
00
00
00
00
ENDCHAR
STARTCHAR C003C
ENCODING -1 60
SWIDTH 233 0
DWIDTH 7 0
BBX 7 30 0 0
BITMAP
00
00
00
00
00
00
00
00
00
00
00
00
00
00
00
00
00
00
00
00
00
00
00
10
28
28
44
44
82
82
ENDCHAR
STARTCHAR C003D
ENCODING -1 61
SWIDTH 0 0
DWIDTH 0 0
BBX 0 30 0 0
BITMAP
00
00
00
00
00
00
00
00
00
00
00
00
00
00
00
00
00
00
00
00
00
00
00
00
00
00
00
00
00
00
ENDCHAR
STARTCHAR C003E
ENCODING -1 62
SWIDTH 0 0
DWIDTH 0 0
BBX 0 30 0 0
BITMAP
00
00
00
00
00
00
00
00
00
00
00
00
00
00
00
00
00
00
00
00
00
00
00
00
00
00
00
00
00
00
ENDCHAR
STARTCHAR C003F
ENCODING -1 63
SWIDTH 33 0
DWIDTH 1 0
BBX 1 30 0 0
BITMAP
00
00
00
00
00
00
00
00
00
00
00
00
00
00
00
00
00
00
00
00
00
00
00
00
00
00
00
00
00
00
ENDCHAR
STARTCHAR C0040
ENCODING -1 64
SWIDTH 933 0
DWIDTH 28 0
BBX 28 30 0 0
BITMAP
00000000
00000000
00000030
000000F0
000003F0
00000FF0
00003FF0
0000FFF0
0003FFC0
000FFF00
003FFC00
00FFF000
03FFC000
0FFF0000
3FFC0000
FFF00000
FFF00000
3FFC0000
0FFF0000
03FFC000
00FFF000
003FFC00
000FFF00
0003FFC0
0000FFF0
00003FF0
00000FF0
000003F0
000000F0
00000030
ENDCHAR
STARTCHAR C0041
ENCODING -1 65
SWIDTH 333 0
DWIDTH 10 0
BBX 10 30 0 0
BITMAP
0000
0000
0000
0000
0000
0000
0000
0000
0000
0000
0000
0000
0000
0000
0000
0000
0000
0000
0000
0000
E000
BC00
C780
40C0
4000
6000
2000
2000
3000
1000
ENDCHAR
STARTCHAR C0042
ENCODING -1 66
SWIDTH 233 0
DWIDTH 7 0
BBX 7 30 0 0
BITMAP
00
00
00
00
00
00
00
00
00
00
00
00
00
00
00
00
00
00
00
00
00
00
00
08
04
04
04
82
72
0E
ENDCHAR
STARTCHAR C0043
ENCODING -1 67
SWIDTH 233 0
DWIDTH 7 0
BBX 7 30 0 0
BITMAP
00
00
00
00
00
00
00
00
00
00
00
00
00
00
00
00
00
00
00
00
00
00
00
20
40
40
40
82
9C
E0
ENDCHAR
STARTCHAR C0044
ENCODING -1 68
SWIDTH 333 0
DWIDTH 10 0
BBX 10 30 0 0
BITMAP
0000
0000
0000
0000
0000
0000
0000
0000
0000
0000
0000
0000
0000
0000
0000
0000
0000
0000
0000
1000
3000
2000
2000
6000
4000
40C0
C780
FC00
E000
0000
ENDCHAR
STARTCHAR C0045
ENCODING -1 69
SWIDTH 500 0
DWIDTH 15 0
BBX 15 30 0 0
BITMAP
0000
0000
0000
0000
0000
0000
0000
0000
0000
0000
0000
0000
0000
0000
0000
0E00
0E00
0E00
1C00
1C00
1C00
3800
3800
380E
707E
73FE
7FF0
FF80
FC00
E000
ENDCHAR
STARTCHAR C0046
ENCODING -1 70
SWIDTH 300 0
DWIDTH 9 0
BBX 9 30 0 0
BITMAP
0000
0000
0000
0000
0000
0000
0000
0000
0000
0000
0000
0000
0000
0000
0000
0000
0000
0000
0000
0000
0000
8080
C180
4100
6300
2200
3600
1400
1C00
0800
ENDCHAR
STARTCHAR C0047
ENCODING -1 71
SWIDTH 333 0
DWIDTH 10 0
BBX 10 30 0 0
BITMAP
0000
0000
0000
0000
0000
0000
0000
0000
0000
0000
0000
0000
0000
0000
0000
0000
0000
0000
0000
0000
0200
0300
0100
0100
0180
0080
C080
78C0
0FC0
01C0
ENDCHAR
STARTCHAR C0048
ENCODING -1 72
SWIDTH 333 0
DWIDTH 10 0
BBX 10 30 0 0
BITMAP
0000
0000
0000
0000
0000
0000
0000
0000
0000
0000
0000
0000
0000
0000
0000
0000
0000
0000
0000
0000
0000
C000
7000
1C00
0700
01C0
0700
1C00
7000
C000
ENDCHAR
STARTCHAR C0049
ENCODING -1 73
SWIDTH 467 0
DWIDTH 14 0
BBX 14 30 0 0
BITMAP
0000
0000
0000
0000
0000
0000
0000
0000
0000
0000
0000
0000
0000
0000
0000
0000
0300
0300
0780
0780
0FC0
0FC0
1CE0
1CE0
3870
3870
7038
7038
E01C
E01C
ENDCHAR
STARTCHAR C004A
ENCODING -1 74
SWIDTH 333 0
DWIDTH 10 0
BBX 10 30 0 0
BITMAP
0000
0000
0000
0000
0000
0000
0000
0000
0000
0000
0000
0000
0000
0000
0000
0000
0000
0000
0000
0000
01C0
0FC0
78C0
C080
0080
0180
0100
0100
0300
0200
ENDCHAR
STARTCHAR C004B
ENCODING -1 75
SWIDTH 300 0
DWIDTH 9 0
BBX 9 30 0 0
BITMAP
0000
0000
0000
0000
0000
0000
0000
0000
0000
0000
0000
0000
0000
0000
0000
0000
0000
0000
0000
0000
0000
0800
1C00
1400
3600
2200
6300
4100
C180
8080
ENDCHAR
STARTCHAR C004C
ENCODING -1 76
SWIDTH 0 0
DWIDTH 0 0
BBX 0 30 0 0
BITMAP
00
00
00
00
00
00
00
00
00
00
00
00
00
00
00
00
00
00
00
00
00
00
00
00
00
00
00
00
00
00
ENDCHAR
STARTCHAR C004D
ENCODING -1 77
SWIDTH 233 0
DWIDTH 7 0
BBX 7 30 0 0
BITMAP
00
00
00
00
00
00
00
00
00
00
00
00
00
00
00
00
00
00
00
00
00
00
00
0E
72
82
04
04
04
08
ENDCHAR
STARTCHAR C004E
ENCODING -1 78
SWIDTH 233 0
DWIDTH 7 0
BBX 7 30 0 0
BITMAP
00
00
00
00
00
00
00
00
00
00
00
00
00
00
00
00
00
00
00
00
00
00
00
C0
30
0C
02
0C
30
C0
ENDCHAR
STARTCHAR C004F
ENCODING -1 79
SWIDTH 0 0
DWIDTH 0 0
BBX 0 30 0 0
BITMAP
00
00
00
00
00
00
00
00
00
00
00
00
00
00
00
00
00
00
00
00
00
00
00
00
00
00
00
00
00
00
ENDCHAR
STARTCHAR C0050
ENCODING -1 80
SWIDTH 0 0
DWIDTH 0 0
BBX 0 30 0 0
BITMAP
00
00
00
00
00
00
00
00
00
00
00
00
00
00
00
00
00
00
00
00
00
00
00
00
00
00
00
00
00
00
ENDCHAR
STARTCHAR C0051
ENCODING -1 81
SWIDTH 500 0
DWIDTH 15 0
BBX 15 30 0 0
BITMAP
0000
0000
0000
0000
0000
0000
0000
0000
0000
0000
0000
0000
0000
0000
0000
E000
FC00
FF80
7FF0
73FE
707E
380E
3800
3800
1C00
1C00
1C00
0E00
0E00
0E00
ENDCHAR
STARTCHAR C0052
ENCODING -1 82
SWIDTH 467 0
DWIDTH 14 0
BBX 14 30 0 0
BITMAP
0000
0000
0000
0000
0000
0000
0000
0000
0000
0000
0000
0000
0000
0000
0000
0000
E01C
E01C
7038
7038
3870
3870
1CE0
1CE0
0FC0
0FC0
0780
0780
0300
0300
ENDCHAR
STARTCHAR C0053
ENCODING -1 83
SWIDTH 300 0
DWIDTH 9 0
BBX 9 30 0 0
BITMAP
0000
0000
0000
0000
0000
0000
0000
0000
0000
0000
0000
0000
0000
0000
0000
0000
0000
0000
0000
0000
0000
0180
0700
1C00
7000
C000
7000
1C00
0700
0180
ENDCHAR
STARTCHAR C0054
ENCODING -1 84
SWIDTH 500 0
DWIDTH 15 0
BBX 15 30 0 0
BITMAP
0000
0000
0000
0000
0000
0000
0000
0000
0000
0000
0000
0000
0000
0000
0000
00E0
00E0
00E0
0070
0070
0070
0038
0038
E038
FC1C
FF9C
1FFC
03FE
007E
000E
ENDCHAR
STARTCHAR C0055
ENCODING -1 85
SWIDTH 500 0
DWIDTH 15 0
BBX 15 30 0 0
BITMAP
0000
0000
0000
0000
0000
0000
0000
0000
0000
0000
0000
0000
0000
0000
0000
000E
007E
03FE
1FFC
FF9C
FC1C
E038
0038
0038
0070
0070
0070
00E0
00E0
00E0
ENDCHAR
STARTCHAR C0056
ENCODING -1 86
SWIDTH 233 0
DWIDTH 7 0
BBX 7 30 0 0
BITMAP
00
00
00
00
00
00
00
00
00
00
00
00
00
00
00
00
00
00
00
00
00
00
00
82
82
44
44
28
28
10
ENDCHAR
STARTCHAR C0057
ENCODING -1 87
SWIDTH 467 0
DWIDTH 14 0
BBX 14 30 0 0
BITMAP
0000
0000
0000
0000
0000
0000
0000
0000
0000
0000
0000
0000
0000
0000
0000
0000
000C
003C
00FC
03F0
0FC0
3F00
FC00
FC00
3F00
0FC0
03F0
00FC
003C
000C
ENDCHAR
STARTCHAR C0058
ENCODING -1 88
SWIDTH 233 0
DWIDTH 7 0
BBX 7 30 0 0
BITMAP
00
00
00
00
00
00
00
00
00
00
00
00
00
00
00
00
00
00
00
00
00
00
00
06
18
60
80
60
18
06
ENDCHAR
STARTCHAR C0059
ENCODING -1 89
SWIDTH 467 0
DWIDTH 14 0
BBX 14 30 0 0
BITMAP
0000
0000
0000
0000
0000
0000
0000
0000
0000
0000
0000
0000
0000
0000
0000
0000
C000
F000
FC00
3F00
0FC0
03F0
00FC
00FC
03F0
0FC0
3F00
FC00
F000
C000
ENDCHAR
STARTCHAR C005A
ENCODING -1 90
SWIDTH 233 0
DWIDTH 7 0
BBX 7 30 0 0
BITMAP
00
00
00
00
00
00
00
00
00
00
00
00
00
00
00
00
00
00
00
00
00
00
00
E0
9C
82
40
40
40
20
ENDCHAR
STARTCHAR C005B
ENCODING -1 91
SWIDTH 0 0
DWIDTH 0 0
BBX 0 30 0 0
BITMAP
00
00
00
00
00
00
00
00
00
00
00
00
00
00
00
00
00
00
00
00
00
00
00
00
00
00
00
00
00
00
ENDCHAR
STARTCHAR C005C
ENCODING -1 92
SWIDTH 0 0
DWIDTH 0 0
BBX 0 30 0 0
BITMAP
00
00
00
00
00
00
00
00
00
00
00
00
00
00
00
00
00
00
00
00
00
00
00
00
00
00
00
00
00
00
ENDCHAR
STARTCHAR C005D
ENCODING -1 93
SWIDTH 0 0
DWIDTH 0 0
BBX 0 30 0 0
BITMAP
00
00
00
00
00
00
00
00
00
00
00
00
00
00
00
00
00
00
00
00
00
00
00
00
00
00
00
00
00
00
ENDCHAR
STARTCHAR C005E
ENCODING -1 94
SWIDTH 0 0
DWIDTH 0 0
BBX 0 30 0 0
BITMAP
00
00
00
00
00
00
00
00
00
00
00
00
00
00
00
00
00
00
00
00
00
00
00
00
00
00
00
00
00
00
ENDCHAR
STARTCHAR C005F
ENCODING -1 95
SWIDTH 0 0
DWIDTH 0 0
BBX 0 30 0 0
BITMAP
00
00
00
00
00
00
00
00
00
00
00
00
00
00
00
00
00
00
00
00
00
00
00
00
00
00
00
00
00
00
ENDCHAR
STARTCHAR C0060
ENCODING -1 96
SWIDTH 0 0
DWIDTH 0 0
BBX 0 30 0 0
BITMAP
00
00
00
00
00
00
00
00
00
00
00
00
00
00
00
00
00
00
00
00
00
00
00
00
00
00
00
00
00
00
ENDCHAR
STARTCHAR C0061
ENCODING -1 97
SWIDTH 300 0
DWIDTH 9 0
BBX 9 30 0 0
BITMAP
0000
0000
0000
0000
0000
0000
0000
0000
0000
0000
0000
0000
0000
0000
0000
0000
0000
0000
0000
0000
0000
E000
FC00
FF80
7F00
7E00
7C00
3800
3000
2000
ENDCHAR
STARTCHAR C0062
ENCODING -1 98
SWIDTH 200 0
DWIDTH 6 0
BBX 6 30 0 0
BITMAP
00
00
00
00
00
00
00
00
00
00
00
00
00
00
00
00
00
00
00
00
00
00
00
00
18
38
78
FC
FC
1C
ENDCHAR
STARTCHAR C0063
ENCODING -1 99
SWIDTH 200 0
DWIDTH 6 0
BBX 6 30 0 0
BITMAP
00
00
00
00
00
00
00
00
00
00
00
00
00
00
00
00
00
00
00
00
00
00
00
00
60
70
78
FC
FC
E0
ENDCHAR
STARTCHAR C0064
ENCODING -1 100
SWIDTH 300 0
DWIDTH 9 0
BBX 9 30 0 0
BITMAP
0000
0000
0000
0000
0000
0000
0000
0000
0000
0000
0000
0000
0000
0000
0000
0000
0000
0000
0000
0000
0000
2000
3000
3800
7C00
7E00
7F00
FF80
FC00
E000
ENDCHAR
STARTCHAR C0065
ENCODING -1 101
SWIDTH 433 0
DWIDTH 13 0
BBX 13 30 0 0
BITMAP
0000
0000
0000
0000
0000
0000
0000
0000
0000
0000
0000
0000
0000
0000
0000
0000
0000
0800
1C00
1E00
1F00
3F80
3FC0
3FE0
7FF0
7FF8
7FF0
FF80
FC00
E000
ENDCHAR
STARTCHAR C0066
ENCODING -1 102
SWIDTH 267 0
DWIDTH 8 0
BBX 8 30 0 0
BITMAP
00
00
00
00
00
00
00
00
00
00
00
00
00
00
00
00
00
00
00
00
00
00
FF
FF
7E
7E
3C
3C
18
18
ENDCHAR
STARTCHAR C0067
ENCODING -1 103
SWIDTH 300 0
DWIDTH 9 0
BBX 9 30 0 0
BITMAP
0000
0000
0000
0000
0000
0000
0000
0000
0000
0000
0000
0000
0000
0000
0000
0000
0000
0000
0000
0000
0000
0200
0600
0E00
1F00
3F00
7F00
FF80
1F80
0380
ENDCHAR
STARTCHAR C0068
ENCODING -1 104
SWIDTH 267 0
DWIDTH 8 0
BBX 8 30 0 0
BITMAP
00
00
00
00
00
00
00
00
00
00
00
00
00
00
00
00
00
00
00
00
00
00
C0
F0
FC
FF
FF
FC
F0
C0
ENDCHAR
STARTCHAR C0069
ENCODING -1 105
SWIDTH 400 0
DWIDTH 12 0
BBX 12 30 0 0
BITMAP
0000
0000
0000
0000
0000
0000
0000
0000
0000
0000
0000
0000
0000
0000
0000
0000
0000
0000
0600
0600
0F00
0F00
1F80
1F80
3FC0
3FC0
7FE0
7FE0
FFF0
FFF0
ENDCHAR
STARTCHAR C006A
ENCODING -1 106
SWIDTH 300 0
DWIDTH 9 0
BBX 9 30 0 0
BITMAP
0000
0000
0000
0000
0000
0000
0000
0000
0000
0000
0000
0000
0000
0000
0000
0000
0000
0000
0000
0000
0000
0380
1F80
FF80
7F00
3F00
1F00
0E00
0600
0200
ENDCHAR
STARTCHAR C006B
ENCODING -1 107
SWIDTH 267 0
DWIDTH 8 0
BBX 8 30 0 0
BITMAP
00
00
00
00
00
00
00
00
00
00
00
00
00
00
00
00
00
00
00
00
00
00
18
18
3C
3C
7E
7E
FF
FF
ENDCHAR
STARTCHAR C006C
ENCODING -1 108
SWIDTH 0 0
DWIDTH 0 0
BBX 0 30 0 0
BITMAP
00
00
00
00
00
00
00
00
00
00
00
00
00
00
00
00
00
00
00
00
00
00
00
00
00
00
00
00
00
00
ENDCHAR
STARTCHAR C006D
ENCODING -1 109
SWIDTH 200 0
DWIDTH 6 0
BBX 6 30 0 0
BITMAP
00
00
00
00
00
00
00
00
00
00
00
00
00
00
00
00
00
00
00
00
00
00
00
00
1C
FC
FC
78
38
18
ENDCHAR
STARTCHAR C006E
ENCODING -1 110
SWIDTH 200 0
DWIDTH 6 0
BBX 6 30 0 0
BITMAP
00
00
00
00
00
00
00
00
00
00
00
00
00
00
00
00
00
00
00
00
00
00
00
80
E0
F8
FC
F8
E0
80
ENDCHAR
STARTCHAR C006F
ENCODING -1 111
SWIDTH 0 0
DWIDTH 0 0
BBX 0 30 0 0
BITMAP
00
00
00
00
00
00
00
00
00
00
00
00
00
00
00
00
00
00
00
00
00
00
00
00
00
00
00
00
00
00
ENDCHAR
STARTCHAR C0070
ENCODING -1 112
SWIDTH 0 0
DWIDTH 0 0
BBX 0 30 0 0
BITMAP
00
00
00
00
00
00
00
00
00
00
00
00
00
00
00
00
00
00
00
00
00
00
00
00
00
00
00
00
00
00
ENDCHAR
STARTCHAR C0071
ENCODING -1 113
SWIDTH 433 0
DWIDTH 13 0
BBX 13 30 0 0
BITMAP
0000
0000
0000
0000
0000
0000
0000
0000
0000
0000
0000
0000
0000
0000
0000
0000
0000
E000
FC00
FF80
7FF0
7FF8
7FF0
3FE0
3FC0
3F80
1F00
1E00
1C00
0800
ENDCHAR
STARTCHAR C0072
ENCODING -1 114
SWIDTH 400 0
DWIDTH 12 0
BBX 12 30 0 0
BITMAP
0000
0000
0000
0000
0000
0000
0000
0000
0000
0000
0000
0000
0000
0000
0000
0000
0000
0000
FFF0
FFF0
7FE0
7FE0
3FC0
3FC0
1F80
1F80
0F00
0F00
0600
0600
ENDCHAR
STARTCHAR C0073
ENCODING -1 115
SWIDTH 267 0
DWIDTH 8 0
BBX 8 30 0 0
BITMAP
00
00
00
00
00
00
00
00
00
00
00
00
00
00
00
00
00
00
00
00
00
00
03
0F
3F
FF
FF
3F
0F
03
ENDCHAR
STARTCHAR C0074
ENCODING -1 116
SWIDTH 433 0
DWIDTH 13 0
BBX 13 30 0 0
BITMAP
0000
0000
0000
0000
0000
0000
0000
0000
0000
0000
0000
0000
0000
0000
0000
0000
0000
0080
01C0
03C0
07C0
0FE0
1FE0
3FE0
7FF0
FFF0
7FF0
0FF8
01F8
0038
ENDCHAR
STARTCHAR C0075
ENCODING -1 117
SWIDTH 433 0
DWIDTH 13 0
BBX 13 30 0 0
BITMAP
0000
0000
0000
0000
0000
0000
0000
0000
0000
0000
0000
0000
0000
0000
0000
0000
0000
0038
01F8
0FF8
7FF0
FFF0
7FF0
3FE0
1FE0
0FE0
07C0
03C0
01C0
0080
ENDCHAR
STARTCHAR C0076
ENCODING -1 118
SWIDTH 200 0
DWIDTH 6 0
BBX 6 30 0 0
BITMAP
00
00
00
00
00
00
00
00
00
00
00
00
00
00
00
00
00
00
00
00
00
00
00
00
FC
FC
78
78
30
30
ENDCHAR
STARTCHAR C0077
ENCODING -1 119
SWIDTH 400 0
DWIDTH 12 0
BBX 12 30 0 0
BITMAP
0000
0000
0000
0000
0000
0000
0000
0000
0000
0000
0000
0000
0000
0000
0000
0000
0000
0000
0030
00F0
03F0
0FF0
3FF0
FFF0
FFF0
3FF0
0FF0
03F0
00F0
0030
ENDCHAR
STARTCHAR C0078
ENCODING -1 120
SWIDTH 200 0
DWIDTH 6 0
BBX 6 30 0 0
BITMAP
00
00
00
00
00
00
00
00
00
00
00
00
00
00
00
00
00
00
00
00
00
00
00
04
1C
7C
FC
7C
1C
04
ENDCHAR
STARTCHAR C0079
ENCODING -1 121
SWIDTH 400 0
DWIDTH 12 0
BBX 12 30 0 0
BITMAP
0000
0000
0000
0000
0000
0000
0000
0000
0000
0000
0000
0000
0000
0000
0000
0000
0000
0000
C000
F000
FC00
FF00
FFC0
FFF0
FFF0
FFC0
FF00
FC00
F000
C000
ENDCHAR
STARTCHAR C007A
ENCODING -1 122
SWIDTH 200 0
DWIDTH 6 0
BBX 6 30 0 0
BITMAP
00
00
00
00
00
00
00
00
00
00
00
00
00
00
00
00
00
00
00
00
00
00
00
00
E0
FC
FC
78
70
60
ENDCHAR
STARTCHAR C007B
ENCODING -1 123
SWIDTH 0 0
DWIDTH 0 0
BBX 0 30 0 0
BITMAP
00
00
00
00
00
00
00
00
00
00
00
00
00
00
00
00
00
00
00
00
00
00
00
00
00
00
00
00
00
00
ENDCHAR
STARTCHAR C007C
ENCODING -1 124
SWIDTH 0 0
DWIDTH 0 0
BBX 0 30 0 0
BITMAP
00
00
00
00
00
00
00
00
00
00
00
00
00
00
00
00
00
00
00
00
00
00
00
00
00
00
00
00
00
00
ENDCHAR
STARTCHAR C007D
ENCODING -1 125
SWIDTH 0 0
DWIDTH 0 0
BBX 0 30 0 0
BITMAP
00
00
00
00
00
00
00
00
00
00
00
00
00
00
00
00
00
00
00
00
00
00
00
00
00
00
00
00
00
00
ENDCHAR
STARTCHAR C007E
ENCODING -1 126
SWIDTH 933 0
DWIDTH 28 0
BBX 28 30 0 0
BITMAP
00000000
00000000
C0000000
F0000000
FC000000
FF000000
FFC00000
FFF00000
3FFC0000
0FFF0000
03FFC000
00FFF000
003FFC00
000FFF00
0003FFC0
0000FFF0
0000FFF0
0003FFC0
000FFF00
003FFC00
00FFF000
03FFC000
0FFF0000
3FFC0000
FFF00000
FFC00000
FF000000
FC000000
F0000000
C0000000
ENDCHAR
STARTCHAR C007F
ENCODING -1 127
SWIDTH 0 0
DWIDTH 0 0
BBX 0 30 0 0
BITMAP
00
00
00
00
00
00
00
00
00
00
00
00
00
00
00
00
00
00
00
00
00
00
00
00
00
00
00
00
00
00
ENDCHAR
ENDFONT
